<svg width="156" height="150" viewBox="0 0 156 150" fill="none" xmlns="http://www.w3.org/2000/svg">
<g filter="url(#filter0_d_2002_270)">
<path d="M23.917 134.861H132.08C145.138 134.861 151.795 128.33 151.795 115.398V49.6687C151.795 36.7366 145.138 30.2705 132.08 30.2705H117.391C112.495 30.2705 110.989 29.2661 108.163 26.1268L103.077 20.475C100.002 17.025 96.8009 15.1393 90.2705 15.1393H65.2848C58.8188 15.1393 55.6152 17.025 52.4786 20.475L47.392 26.1268C44.6304 29.2018 43.0607 30.2705 38.1643 30.2705H23.9143C10.8563 30.2705 4.20001 36.7366 4.20001 49.6687V115.398C4.20001 128.33 10.8589 134.861 23.917 134.861ZM24.1018 124.752C17.8875 124.752 14.3089 121.425 14.3089 114.895V50.2339C14.3089 43.7036 17.8875 40.3768 24.1018 40.3768H40.6741C46.3259 40.3768 49.3393 39.3107 52.4786 35.7964L57.4366 30.2705C61.0152 26.2527 62.8366 25.2482 68.4241 25.2482H87.1313C92.7188 25.2482 94.5402 26.2527 98.1188 30.2705L103.077 35.7937C106.216 39.3107 109.229 40.3768 114.881 40.3768H131.893C138.107 40.3768 141.688 43.7036 141.688 50.2339V114.895C141.688 121.425 138.11 124.752 131.893 124.752H24.1018ZM77.9679 114.771C82.4779 114.784 86.9459 113.904 91.1143 112.182C95.2827 110.46 99.0691 107.93 102.255 104.738C105.441 101.546 107.964 97.755 109.678 93.5834C111.393 89.4118 112.264 84.9422 112.243 80.4321C112.243 61.3446 97.05 46.0929 77.9652 46.0929C59.0063 46.0929 43.7518 61.3446 43.7518 80.4321C43.7518 99.5143 59.0063 114.771 77.9652 114.771M123.102 65.1107C127.371 65.1107 130.886 61.6607 130.886 57.3911C130.886 55.3266 130.066 53.3468 128.606 51.887C127.146 50.4272 125.166 49.6071 123.102 49.6071C121.037 49.6071 119.057 50.4272 117.598 51.887C116.138 53.3468 115.318 55.3266 115.318 57.3911C115.318 61.6607 118.832 65.1107 123.102 65.1107ZM77.9679 105.23C64.3447 105.23 53.2339 94.1812 53.2339 80.4321C53.2339 66.683 64.2831 55.6366 77.9679 55.6366C81.2253 55.6327 84.4515 56.2714 87.4617 57.5161C90.4719 58.7608 93.2071 60.587 95.5106 62.8902C97.814 65.1935 99.6405 67.9284 100.886 70.9385C102.131 73.9486 102.77 77.1747 102.766 80.4321C102.77 83.6898 102.131 86.9162 100.886 89.9266C99.6415 92.937 97.815 95.6723 95.5115 97.9758C93.208 100.279 90.4727 102.106 87.4623 103.351C84.4519 104.595 81.2255 105.234 77.9679 105.23Z" fill="#A67327"/>
</g>
<defs>
<filter id="filter0_d_2002_270" x="-1" y="0" width="158" height="158" filterUnits="userSpaceOnUse" color-interpolation-filters="sRGB">
<feFlood flood-opacity="0" result="BackgroundImageFix"/>
<feColorMatrix in="SourceAlpha" type="matrix" values="0 0 0 0 0 0 0 0 0 0 0 0 0 0 0 0 0 0 127 0" result="hardAlpha"/>
<feOffset dy="4"/>
<feGaussianBlur stdDeviation="2"/>
<feComposite in2="hardAlpha" operator="out"/>
<feColorMatrix type="matrix" values="0 0 0 0 0 0 0 0 0 0 0 0 0 0 0 0 0 0 0.25 0"/>
<feBlend mode="normal" in2="BackgroundImageFix" result="effect1_dropShadow_2002_270"/>
<feBlend mode="normal" in="SourceGraphic" in2="effect1_dropShadow_2002_270" result="shape"/>
</filter>
</defs>
</svg>
