<svg width="122" height="91" viewBox="0 0 122 91" fill="none" xmlns="http://www.w3.org/2000/svg">
<path opacity="0.2" fill-rule="evenodd" clip-rule="evenodd" d="M79.5 15.75H34.5C29.5272 15.75 24.7581 17.7254 21.2417 21.2417C17.7254 24.7581 15.75 29.5272 15.75 34.5V72C15.75 76.9728 17.7254 81.7419 21.2417 85.2583C24.7581 88.7746 29.5272 90.75 34.5 90.75H79.5C84.4728 90.75 89.2419 88.7746 92.7583 85.2583C96.2746 81.7419 98.25 76.9728 98.25 72V71.82L115.86 83.5575C116.425 83.9333 117.081 84.1489 117.758 84.1813C118.436 84.2137 119.109 84.0617 119.708 83.7416C120.306 83.4214 120.805 82.945 121.154 82.3632C121.503 81.7813 121.687 81.1158 121.688 80.4375V27.9375C121.687 27.2592 121.503 26.5937 121.154 26.0118C120.805 25.43 120.306 24.9536 119.708 24.6334C119.109 24.3133 118.436 24.1613 117.758 24.1937C117.081 24.2261 116.425 24.4417 115.86 24.8175L98.25 36.555V34.5C98.25 29.5272 96.2746 24.7581 92.7583 21.2417C89.2419 17.7254 84.4728 15.75 79.5 15.75Z" fill="#A67327"/>
<path fill-rule="evenodd" clip-rule="evenodd" d="M64.5 0.75H19.5C14.5272 0.75 9.75805 2.72544 6.24175 6.24175C2.72544 9.75805 0.75 14.5272 0.75 19.5V57C0.75 61.9728 2.72544 66.7419 6.24175 70.2583C9.75805 73.7746 14.5272 75.75 19.5 75.75H64.5C69.4728 75.75 74.2419 73.7746 77.7583 70.2583C81.2746 66.7419 83.25 61.9728 83.25 57V19.5C83.25 14.5272 81.2746 9.75805 77.7583 6.24175C74.2419 2.72544 69.4728 0.75 64.5 0.75ZM8.25 19.5C8.25 16.5163 9.43526 13.6548 11.545 11.545C13.6548 9.43526 16.5163 8.25 19.5 8.25H64.5C67.4837 8.25 70.3452 9.43526 72.455 11.545C74.5647 13.6548 75.75 16.5163 75.75 19.5V57C75.75 59.9837 74.5647 62.8452 72.455 64.955C70.3452 67.0647 67.4837 68.25 64.5 68.25H19.5C16.5163 68.25 13.6548 67.0647 11.545 64.955C9.43526 62.8452 8.25 59.9837 8.25 57V19.5Z" fill="#A67327"/>
<path fill-rule="evenodd" clip-rule="evenodd" d="M99.96 8.85001L77.625 23.3775C77.106 23.7139 76.6783 24.1735 76.38 24.7152C76.0816 25.257 75.9219 25.8641 75.915 26.4825L75.7125 46.0725C75.7048 46.7042 75.8568 47.3276 76.1545 47.8849C76.4521 48.4421 76.8857 48.9151 77.415 49.26L99.945 63.9C100.511 64.2688 101.166 64.4779 101.841 64.5052C102.516 64.5326 103.186 64.377 103.78 64.0551C104.373 63.7332 104.869 63.2569 105.215 62.6764C105.56 62.096 105.743 61.433 105.743 60.7575V12C105.744 11.3239 105.563 10.6599 105.218 10.0784C104.873 9.49689 104.377 9.01946 103.783 8.69666C103.189 8.37386 102.518 8.21769 101.843 8.24469C101.167 8.27168 100.511 8.48084 99.945 8.85001M98.25 53.85L83.2425 44.0925L83.4 28.5675L98.25 18.915V53.85Z" fill="#A67327"/>
</svg>
